<?xml version="1.0" encoding="utf-8"?>
<!-- Generator: Adobe Illustrator 25.2.1, SVG Export Plug-In . SVG Version: 6.00 Build 0)  -->
<svg version="1.1" id="Layer_1" xmlns="http://www.w3.org/2000/svg" xmlns:xlink="http://www.w3.org/1999/xlink" x="0px" y="0px"
	 viewBox="0 0 2412 738" style="enable-background:new 0 0 2412 738;" xml:space="preserve">
<style type="text/css">
	.st0{fill:#FFFFFF;}
	.st1{fill:#3881FF;}
	.st2{fill:#F87B4C;}
	.st3{fill:#16BFD9;}
</style>
<g>
	<path class="st0" d="M349,169.1c1.9-1,4.2-1,6,0l177.8,97.7c1.9,1.1,3.2,3.1,3.2,5.3v193.8c0,2.2-1.2,4.2-3.2,5.3L355,568.9
		c-1.9,1-4.2,1-6,0l-177.8-97.7c-1.9-1.1-3.2-3.1-3.2-5.3V272.1c0-2.2,1.2-4.2,3.2-5.3L349,169.1z M351,144c-2.8,0-5.7,0.7-8.3,2.1
		L152.6,250.5c-5.3,2.9-8.6,8.5-8.6,14.5v208c0,6,3.3,11.5,8.6,14.5l190.1,104.4c2.6,1.4,5.4,2.1,8.3,2.1s5.7-0.7,8.3-2.1
		l190.1-104.4c5.3-2.9,8.6-8.5,8.6-14.5V265c0-6-3.3-11.5-8.6-14.5L359.3,146.1C356.7,144.7,353.8,144,351,144L351,144z"/>
	<g>
		<g>
			<path class="st1" d="M445.9,316.5c1.1-0.6,1.1-2.2,0-2.8l-81.4-44.7c-1.1-0.6-2.5,0.2-2.5,1.4v31.9c0,1.3,0.7,2.5,1.8,3.1
				l49.4,27.2c1.1,0.6,2.4,0.6,3.5,0L445.9,316.5z"/>
			<path class="st1" d="M503.2,285c1.1-0.6,1.1-2.2,0-2.8l-138.7-76.2c-1.1-0.6-2.5,0.2-2.5,1.4v31.9c0,1.3,0.7,2.5,1.8,3.1
				L470.6,301c1.1,0.6,2.4,0.6,3.5,0L503.2,285z"/>
		</g>
		<path class="st2" d="M429.2,370.4c1.1-0.6,1.1-2.2,0-2.8l-64.8-35.6c-1.1-0.6-2.5,0.2-2.5,1.4v71.2c0,1.2,1.4,2,2.5,1.4
			L429.2,370.4z"/>
		<g>
			<path class="st1" d="M445.9,421.4c1.1,0.6,1.1,2.2,0,2.8L364.5,469c-1.1,0.6-2.5-0.2-2.5-1.4v-31.9c0-1.3,0.7-2.5,1.8-3.1
				l49.4-27.2c1.1-0.6,2.4-0.6,3.5,0L445.9,421.4z"/>
			<path class="st1" d="M503.2,452.9c1.1,0.6,1.1,2.2,0,2.8L364.5,532c-1.1,0.6-2.5-0.2-2.5-1.4v-31.9c0-1.3,0.7-2.5,1.8-3.1
				l106.7-58.7c1.1-0.6,2.4-0.6,3.5,0L503.2,452.9z"/>
		</g>
		<g>
			<g>
				<path class="st3" d="M194,287.3v163.4c0,1.3,0.7,2.4,1.8,3.1l28.8,15.4c1.1,0.6,2.4-0.2,2.4-1.4V270.2c0-1.2-1.3-2-2.4-1.4
					l-28.8,15.4C194.7,284.9,194,286,194,287.3z"/>
			</g>
			<path class="st3" d="M250,255.3v227.4c0,1.3,0.7,2.5,1.8,3.1l28.7,15.7c1.1,0.6,2.4-0.2,2.4-1.4V237.9c0-1.2-1.3-2-2.4-1.4
				l-28.8,15.7C250.7,252.8,250,254,250,255.3z"/>
			<path class="st3" d="M306,224.4v289.1c0,1.3,0.7,2.5,1.8,3.1l28.8,15.7c1.1,0.6,2.4-0.2,2.4-1.4V207.1c0-1.2-1.3-2-2.4-1.4
				l-28.8,15.7C306.7,222,306,223.2,306,224.4z"/>
		</g>
	</g>
</g>
<g>
	<path class="st0" d="M684.6,376.6c0,53.7,38.1,99.9,98,99.9c31.3,0,56.4-12.6,73.6-32c4.2-5,12.6-5.3,16.4-0.8l19.4,20.2
		c5,4.6,5.3,11.1,0,16c-26.7,27.4-64,45.4-109.4,45.4c-89.9,0-152.1-66.3-152.1-149c0-84.2,64-148.3,152.1-148.3
		c44.2,0,78.9,15.6,105.6,41.5c4.6,4.6,5,11.8,0.8,16l-20.2,20.2c-4.2,4.2-11.4,4.2-16-0.8c-16.8-17.5-41.2-30.5-70.1-30.5
		C722.7,274.5,684.6,323.3,684.6,376.6z"/>
	<path class="st0" d="M1096.3,400.6v109c0,6.1-2.7,9.1-8.4,9.1h-29.7c-5.3,0-7.6-3.4-7.6-8.4v-15.6c-16.8,25.2-43.5,30.9-60.6,30.9
		c-43.8,0-76.6-22.9-76.6-62.9c0-35.1,21-62.1,96.4-61.7l40.4-0.4v-1.1c0-23.6-14.9-38.1-41.9-38.1c-20.2,0-34.3,9.5-45.4,17.9
		c-4.2,3.4-8.8,2.3-11.8-1.5l-14.1-17.2c-3.4-3.8-4.2-8.4,0.4-12.6c13.3-13.3,38.1-26.7,71.3-26.7
		C1054.7,321.4,1096.3,343.8,1096.3,400.6z M1050.1,434.2H1004c-33.5,0-43.8,11.4-43.8,25.9c0,16.8,13.3,27.1,40.4,27.1
		C1031.1,487.2,1050.1,467.7,1050.1,434.2z"/>
	<path class="st0" d="M1315.8,212.4c5.7,0,9.5,3.8,9.5,9.5v287c0,5.3-3.4,9.9-9.5,9.9h-27.4c-6.1,0-9.9-4.2-9.9-9.9v-13.3
		c-14.1,20.2-35.1,30.1-61,30.1c-57.2,0-91.9-41.5-91.9-102.5c0-59.1,38.1-101.8,92.2-101.8c25.2,0,46.5,12.6,60.6,33.5v-133
		c0-5,3.4-9.5,9.9-9.5H1315.8z M1281.1,423.1c0-31.6-19.8-56.4-52.6-56.4s-52.2,24.8-52.2,56.4c0,33.5,19.4,56.8,52.2,56.8
		C1260.9,479.9,1281.1,456.7,1281.1,423.1z"/>
	<path class="st0" d="M1646.2,391.1v118.5c0,5.3-3.4,9.5-9.5,9.5h-28.2c-6.1,0-9.1-3.4-9.1-9.1V404.4c0-23.6-7.6-40.4-31.3-40.4
		c-21.7,0-34.7,18.3-35.8,47.3l0.4,98.7c0,5-3.4,8.8-9.9,8.8h-27.8c-5.7,0-9.1-4.6-9.1-9.5l-0.4-105.2c0-23.6-7.6-40.4-32.8-40.4
		c-19.8,0-33.5,14.9-35.8,38.5v106.7c0,5.7-3.8,9.9-9.9,9.9h-27.1c-6.1,0-9.9-3.8-9.9-9.9V337.7c0-5.7,3.8-9.9,9.9-9.9h27.1
		c6.1,0,9.9,3.8,9.9,9.9v17.5c11.1-20.2,29.3-33.9,54.9-33.9c26.7,0,44.2,12.2,53.4,31.6c12.2-18.3,31.6-30.9,58.3-30.9
		C1628.3,322.1,1646.2,352.2,1646.2,391.1z"/>
	<path class="st0" d="M1743.5,267.5c0,16.9-13.3,30.6-30.2,30.6c-16.9,0-30.6-13.6-30.6-30.6c0-16.9,13.6-30.2,30.6-30.2
		C1730.2,237.4,1743.5,250.6,1743.5,267.5z M1726.7,327.8c6.5,0,10.3,3.8,10.3,9.9v171.1c0,5.7-3.8,9.9-10.3,9.9H1700
		c-6.1,0-9.9-3.8-9.9-9.9V337.7c0-5.7,3.8-9.9,9.9-9.9H1726.7z"/>
	<path class="st0" d="M1943.9,327.8c2.3,0,10.3,1.1,10.3,9.9v102.9c0,51.5-31.6,85-87.3,85c-55.6,0-86.9-33.5-86.9-85V337.7
		c0-8.8,8-9.9,9.9-9.9h27.1c8.4,0,9.5,7.2,9.5,9.1v100.2c0,27.8,12.6,43.8,40.4,43.8c28.2,0,40.4-16,40.4-43.8V337
		c0-1.9,1.1-9.1,9.5-9.1H1943.9z"/>
	<path class="st0" d="M2267.5,391.1v118.5c0,5.3-3.4,9.5-9.5,9.5h-28.2c-6.1,0-9.1-3.4-9.1-9.1V404.4c0-23.6-7.6-40.4-31.3-40.4
		c-21.7,0-34.7,18.3-35.8,47.3l0.4,98.7c0,5-3.4,8.8-9.9,8.8h-27.8c-5.7,0-9.1-4.6-9.1-9.5l-0.4-105.2c0-23.6-7.6-40.4-32.8-40.4
		c-19.8,0-33.5,14.9-35.8,38.5v106.7c0,5.7-3.8,9.9-9.9,9.9h-27.1c-6.1,0-9.9-3.8-9.9-9.9V337.7c0-5.7,3.8-9.9,9.9-9.9h27.1
		c6.1,0,9.9,3.8,9.9,9.9v17.5c11.1-20.2,29.3-33.9,54.9-33.9c26.7,0,44.2,12.2,53.4,31.6c12.2-18.3,31.6-30.9,58.3-30.9
		C2249.6,322.1,2267.5,352.2,2267.5,391.1z"/>
</g>
</svg>
